<svg width="33" height="33" viewBox="0 0 33 33" fill="none" xmlns="http://www.w3.org/2000/svg">
<path d="M16.4659 5.92383C19.2312 5.92383 19.5763 5.93401 20.6612 5.9849C21.7452 6.03579 22.4831 6.20576 23.1324 6.45817C23.8042 6.71669 24.3701 7.06681 24.936 7.63169C25.4535 8.14048 25.854 8.75593 26.1095 9.43522C26.3609 10.0836 26.5319 10.8225 26.5828 11.9064C26.6306 12.9914 26.6438 13.3364 26.6438 16.1018C26.6438 18.8671 26.6337 19.2122 26.5828 20.2971C26.5319 21.3811 26.3609 22.119 26.1095 22.7683C25.8547 23.448 25.4542 24.0636 24.936 24.5719C24.427 25.0892 23.8116 25.4897 23.1324 25.7454C22.4841 25.9968 21.7452 26.1678 20.6612 26.2187C19.5763 26.2665 19.2312 26.2797 16.4659 26.2797C13.7005 26.2797 13.3555 26.2696 12.2705 26.2187C11.1866 26.1678 10.4487 25.9968 9.79932 25.7454C9.11977 25.4904 8.50421 25.0899 7.99579 24.5719C7.47815 24.0632 7.07767 23.4477 6.82227 22.7683C6.56986 22.12 6.39989 21.3811 6.349 20.2971C6.30116 19.2122 6.28793 18.8671 6.28793 16.1018C6.28793 13.3364 6.29811 12.9914 6.349 11.9064C6.39989 10.8215 6.56986 10.0846 6.82227 9.43522C7.07696 8.75552 7.47753 8.13989 7.99579 7.63169C8.50435 7.11387 9.11987 6.71336 9.79932 6.45817C10.4487 6.20576 11.1856 6.03579 12.2705 5.9849C13.3555 5.93706 13.7005 5.92383 16.4659 5.92383ZM16.4659 11.0128C15.1162 11.0128 13.8218 11.549 12.8674 12.5033C11.9131 13.4577 11.3769 14.7521 11.3769 16.1018C11.3769 17.4515 11.9131 18.7459 12.8674 19.7002C13.8218 20.6546 15.1162 21.1908 16.4659 21.1908C17.8156 21.1908 19.11 20.6546 20.0643 19.7002C21.0187 18.7459 21.5549 17.4515 21.5549 16.1018C21.5549 14.7521 21.0187 13.4577 20.0643 12.5033C19.11 11.549 17.8156 11.0128 16.4659 11.0128ZM23.0816 10.7584C23.0816 10.4209 22.9475 10.0973 22.7089 9.85874C22.4703 9.62015 22.1467 9.48611 21.8093 9.48611C21.4719 9.48611 21.1483 9.62015 20.9097 9.85874C20.6711 10.0973 20.5371 10.4209 20.5371 10.7584C20.5371 11.0958 20.6711 11.4194 20.9097 11.658C21.1483 11.8966 21.4719 12.0306 21.8093 12.0306C22.1467 12.0306 22.4703 11.8966 22.7089 11.658C22.9475 11.4194 23.0816 11.0958 23.0816 10.7584ZM16.4659 13.0484C17.2757 13.0484 18.0523 13.3701 18.625 13.9427C19.1976 14.5153 19.5193 15.292 19.5193 16.1018C19.5193 16.9116 19.1976 17.6882 18.625 18.2608C18.0523 18.8335 17.2757 19.1552 16.4659 19.1552C15.6561 19.1552 14.8794 18.8335 14.3068 18.2608C13.7342 17.6882 13.4125 16.9116 13.4125 16.1018C13.4125 15.292 13.7342 14.5153 14.3068 13.9427C14.8794 13.3701 15.6561 13.0484 16.4659 13.0484Z" fill="#1C2436"/>
</svg>
